<svg width="63" height="62" viewBox="0 0 63 62" fill="none" xmlns="http://www.w3.org/2000/svg">
<path d="M18.5529 38.4157C18.5203 38.4528 18.4877 38.4899 18.4539 38.5195C18.4539 38.5208 18.4514 38.5232 18.4501 38.5245C18.514 38.4775 18.5441 38.438 18.5529 38.4157ZM30.6795 55.2927C30.6795 55.2927 30.682 55.2914 30.6833 55.2902C30.7008 55.2643 30.7309 55.2346 30.7647 55.2049C30.7346 55.221 30.7008 55.2507 30.6795 55.2914V55.2927ZM50.2187 32.8482C50.0157 31.7411 49.4733 30.739 48.7179 29.9037C47.3198 28.3593 45.338 27.692 43.326 27.3646C43.1093 26.6826 42.7573 26.0499 42.1936 25.5124C41.2678 24.629 40.1228 24.2003 38.9289 23.8852C39.4939 21.8292 39.9461 19.7435 40.2793 17.6393C40.6364 15.388 40.9496 13.0812 40.9633 10.799C40.9771 8.5762 40.4597 6.27676 38.8562 4.62725C38.0119 3.75863 36.7666 3.03333 35.5101 3.08894C34.1358 3.14948 33.1499 3.9971 32.367 5.03252C31.1631 6.62396 30.2912 8.49588 29.5708 10.3394C28.8793 12.11 28.3845 13.951 28.0249 15.8143C27.7719 17.1277 27.5814 18.4498 27.4349 19.7768C27.1843 19.1195 26.9187 18.4683 26.6344 17.8221C25.1686 14.4959 23.1379 11.3143 20.1226 9.16063C18.6381 8.10049 16.9055 7.44934 15.0802 7.28377C14.3323 7.21581 13.5556 7.32207 12.9881 7.85461C12.4645 8.34638 12.2628 8.99259 12.234 9.68947C12.1964 10.6038 12.2979 11.5441 12.3906 12.4522C12.7965 16.4197 13.8438 20.2772 15.337 23.9766C16.7752 27.5388 18.5566 30.9392 20.4783 34.2654C20.3393 34.3 20.2002 34.3346 20.0624 34.3704C18.7608 34.7114 17.4404 35.0883 16.4044 35.9754C15.3859 36.8465 14.9149 38.2625 14.9274 39.5636C14.9412 40.945 15.4799 42.2325 16.105 43.4434C17.2149 45.5933 18.4802 47.6715 19.8432 49.6732C21.255 51.7441 22.7809 53.7556 24.4333 55.6473C25.2275 56.5567 26.1408 57.4475 27.2369 57.9962C28.4772 58.6177 29.9579 58.9043 31.3172 58.5003C31.7606 58.3681 32.1853 58.1716 32.5636 57.9121C34.2711 58.1061 35.9799 58.0567 37.6987 57.9084C39.7231 57.733 41.705 57.4129 43.559 56.5592C45.115 55.8425 46.5494 54.6452 47.3799 53.1477C48.3884 51.3301 48.4448 49.263 48.0702 47.2675C47.7708 45.6798 47.1369 44.1872 46.597 42.6674C46.9728 42.4746 47.3311 42.2498 47.6681 41.9928C48.4899 41.3663 49.1827 40.5718 49.6023 39.6278C50.0984 38.5121 50.3164 37.3581 50.3815 36.1422C50.4404 35.0438 50.4154 33.933 50.2162 32.8494L50.2187 32.8482ZM15.1516 10.5136C15.1516 10.5136 15.1617 10.5136 15.1667 10.5136C15.1855 10.5148 15.2043 10.5173 15.2205 10.5185C14.9324 10.505 15.0351 10.5037 15.1516 10.5124V10.5136ZM46.8788 32.9285C46.8751 32.9198 46.8713 32.9112 46.8688 32.9025C46.8763 32.9173 46.8801 32.9272 46.8788 32.9285ZM40.3445 28.7682C40.3445 28.7769 40.3445 28.7843 40.3445 28.7929C40.3382 28.7608 40.3332 28.7287 40.3307 28.7065C40.3345 28.7238 40.3382 28.741 40.342 28.7583C40.342 28.7621 40.3432 28.7658 40.3445 28.7682ZM40.2217 28.2493C40.218 28.2394 40.2142 28.232 40.2117 28.2221C40.2192 28.2369 40.2242 28.2468 40.2217 28.2493ZM40.0977 28.0096C40.1541 28.0714 40.2017 28.1183 40.0977 28.0096V28.0096ZM38.4704 27.0779C38.6019 27.1162 38.7322 27.157 38.8612 27.2027C38.9001 27.2163 38.9376 27.2312 38.9765 27.2447C39.2095 27.3967 39.4864 27.5079 39.7281 27.6525C39.7582 27.676 39.7908 27.6994 39.8158 27.7229C39.8922 27.7921 39.9624 27.8663 40.0326 27.9404C40.0576 27.9836 40.1065 28.0417 40.1265 28.0751C40.1228 28.0689 40.1653 28.1381 40.1954 28.1912C40.2092 28.2283 40.223 28.2641 40.2342 28.3012C40.2756 28.4334 40.3044 28.5681 40.3332 28.704C40.3332 28.7583 40.3545 28.8955 40.357 28.9252C40.3821 29.281 40.3858 29.6393 40.3833 29.9964C40.3808 30.3016 40.3708 30.6068 40.352 30.9107C40.342 31.0627 40.3307 31.2159 40.3169 31.3679C40.3094 31.4433 40.3019 31.5199 40.2944 31.5953C40.2906 31.6299 40.2894 31.6953 40.2894 31.7485C40.2668 32.0042 40.1891 32.2761 40.1353 32.5195C40.0626 32.8519 39.9762 33.1818 39.8735 33.5067C39.8284 33.6513 39.7795 33.7934 39.7269 33.9355C39.7131 33.9738 39.6855 34.0553 39.663 34.1258C39.564 34.405 39.3949 34.683 39.2483 34.9375C39.0917 35.2106 38.9189 35.4701 38.7334 35.7246C38.7247 35.737 38.7184 35.7469 38.7122 35.7555C38.6821 35.7876 38.6545 35.816 38.6495 35.821C38.543 35.9445 38.4328 36.0632 38.32 36.1805C38.0958 36.4104 37.8565 36.6204 37.6097 36.8255C37.5296 36.8651 37.4293 36.959 37.3604 37.0059C37.2251 37.0974 37.0873 37.1851 36.947 37.2691C36.8969 37.2988 36.8468 37.3272 36.7967 37.3556C36.7829 37.363 36.7704 37.3704 36.7566 37.3778C36.7328 37.3914 36.709 37.405 36.6852 37.4174C36.3783 36.6698 35.9285 35.9804 35.3397 35.4194C35.1381 35.2267 34.9213 35.05 34.6946 34.8869C35.9812 32.323 37.0873 29.6665 37.9968 26.9482C38.1559 26.9877 38.3138 27.0285 38.4704 27.0742V27.0779ZM37.5934 36.8428C37.5809 36.8527 37.5696 36.8638 37.5571 36.8737C37.3755 37.0232 37.5195 36.8984 37.5934 36.8428ZM19.0953 24.5685C19.0064 24.3695 18.9174 24.1694 18.8322 23.9692C18.8272 23.9568 18.821 23.9432 18.8147 23.9272C18.7671 23.8123 18.7182 23.6986 18.6706 23.5837C18.489 23.1438 18.3123 22.7027 18.142 22.2591C17.8087 21.3905 17.4993 20.512 17.2174 19.6261C16.6675 17.8975 16.2227 16.1343 15.9133 14.3476C15.8745 14.1252 15.8381 13.9016 15.8043 13.678C15.7893 13.5766 15.7743 13.4741 15.7592 13.3728C15.758 13.3616 15.7555 13.3505 15.7542 13.3406C15.7542 13.332 15.7517 13.3221 15.7505 13.311C15.6953 12.8625 15.644 12.4127 15.6051 11.963C15.5663 11.512 15.5362 11.061 15.5162 10.6087C15.5162 10.5976 15.5162 10.5865 15.5149 10.5754C15.5287 10.5779 15.5412 10.5803 15.555 10.5828C15.753 10.626 15.9496 10.6767 16.1438 10.7348C16.3054 10.783 16.4658 10.8373 16.6236 10.8954L16.6487 10.9053C16.7088 10.9374 16.784 10.9584 16.8429 10.9856C17.1986 11.1487 17.5431 11.3353 17.8751 11.5404C18.0204 11.6306 18.1645 11.7245 18.3061 11.8209C18.3913 11.8789 18.4739 11.9407 18.5591 12C18.5654 12.005 18.5717 12.0087 18.5779 12.0136C18.8711 12.2471 19.1554 12.4906 19.4298 12.7463C19.7104 13.0095 19.9797 13.285 20.2391 13.5705C20.3568 13.7002 20.4721 13.8324 20.5861 13.9658C20.6537 14.0462 20.7214 14.1265 20.7878 14.208C20.8128 14.2389 20.8379 14.271 20.8629 14.3019C21.8689 15.6376 22.7082 17.0857 23.4248 18.5907C23.5263 18.8032 23.6253 19.0182 23.7217 19.2332C23.7706 19.3407 23.8169 19.4494 23.8645 19.5569C23.8695 19.568 23.8746 19.5791 23.8783 19.5878C23.8808 19.594 23.8833 19.6001 23.8858 19.6063C24.0813 20.0796 24.2729 20.554 24.4521 21.0347C24.7991 21.9601 25.1123 22.8967 25.4042 23.8407C25.9892 25.7324 26.4865 27.65 26.9801 29.5664C27.1806 30.3436 27.9886 30.8218 28.7691 30.718C29.5746 30.6117 30.1646 29.9457 30.1834 29.1389C30.2248 27.2991 30.2736 25.4593 30.3776 23.622C30.4315 22.6805 30.4991 21.7414 30.5881 20.8024C30.6269 20.3909 30.6707 19.9795 30.7183 19.5693C30.7446 19.3456 30.7722 19.122 30.801 18.8996C30.8035 18.8835 30.8048 18.86 30.806 18.8353C30.8161 18.7031 30.8474 18.5672 30.8662 18.4375C31.1343 16.6421 31.5076 14.8592 32.0425 13.1219C32.3018 12.2793 32.605 11.4539 32.9382 10.6372C32.9382 10.6347 32.9395 10.6335 32.9407 10.631C32.9432 10.626 32.9445 10.6223 32.947 10.6174C32.9921 10.5173 33.0359 10.416 33.0823 10.3159C33.1737 10.1157 33.2677 9.91558 33.3642 9.71788C33.5746 9.2879 33.7976 8.86409 34.0344 8.4477C34.2549 8.06096 34.4866 7.68039 34.7297 7.30848C34.8274 7.15897 34.9263 7.00947 35.0291 6.86367C35.0303 6.8612 35.0316 6.85996 35.0341 6.85749C35.098 6.81672 35.247 6.59802 35.2859 6.55971C35.3485 6.49423 35.4162 6.43492 35.4826 6.37314C35.4851 6.37314 35.4863 6.37067 35.4888 6.36943C35.5089 6.35708 35.5289 6.34596 35.549 6.3336C35.5765 6.32619 35.6053 6.31754 35.6329 6.31012C35.6742 6.32001 35.7156 6.33113 35.7557 6.34348C35.7669 6.34595 35.777 6.34719 35.787 6.34966C35.7907 6.35213 35.7945 6.35337 35.7983 6.35584C35.9248 6.42874 36.0538 6.49423 36.1753 6.57577C36.1791 6.57825 36.1828 6.58072 36.1854 6.58319C36.2254 6.62396 36.3444 6.71416 36.3645 6.73146C36.501 6.85625 36.6213 6.9934 36.7466 7.12808C36.803 7.21334 36.8618 7.29489 36.917 7.38015C37.0447 7.58155 37.15 7.7916 37.2565 8.00288C37.2903 8.09926 37.3279 8.19316 37.3604 8.29078C37.4281 8.49218 37.4845 8.69729 37.5321 8.90363C37.5609 9.02719 37.5859 9.15075 37.6085 9.27554C37.6122 9.29408 37.6198 9.32867 37.6298 9.36574C37.6285 9.35956 37.6273 9.35462 37.6248 9.34844C37.6874 9.5832 37.6749 9.86245 37.6861 10.1059C37.735 11.166 37.6486 12.2298 37.5571 13.285C37.512 13.7941 37.4607 14.3032 37.403 14.811C37.3792 15.0223 37.3529 15.2336 37.3266 15.4461C37.3103 15.5721 37.2978 15.7006 37.2778 15.8266C37.3479 15.388 37.2602 15.9514 37.2477 16.0318C36.9483 18.0989 36.5361 20.1487 36.0137 22.1714C35.8145 22.9424 35.5991 23.7097 35.3673 24.4733C35.3498 24.5227 35.3335 24.5734 35.321 24.6265C34.895 26.0215 34.4165 27.4004 33.8866 28.7596C33.6899 29.2637 33.4844 29.7641 33.2752 30.2633C33.2689 30.2781 33.2639 30.2905 33.2589 30.3016C33.2539 30.3127 33.2489 30.3251 33.2426 30.3387C33.1762 30.4906 33.1098 30.6439 33.0422 30.7958C32.9244 31.0627 32.8042 31.3284 32.6814 31.5928C32.3682 32.2711 32.04 32.9433 31.7005 33.6093C29.1649 33.0458 26.4377 33.2818 23.8946 33.6241C23.8846 33.6253 23.8746 33.6266 23.8633 33.629C22.1295 30.6859 20.4796 27.6896 19.0915 24.5722L19.0953 24.5685ZM33.6661 38.5912C33.6448 38.5467 33.6247 38.5035 33.6272 38.5047C33.6373 38.5109 33.6523 38.5492 33.6661 38.5912ZM32.8493 37.5335C32.7716 37.4792 32.6664 37.3741 32.8042 37.4927C32.8192 37.5063 32.8342 37.5199 32.8493 37.5335ZM19.1341 38.0166C19.0915 38.0315 19.1028 38.0278 19.1341 38.0166V38.0166ZM29.656 55.4632C29.7211 55.4681 29.8113 55.4743 29.8063 55.4817C29.8013 55.4916 29.7349 55.4817 29.656 55.4632ZM43.2621 53.0068C43.1056 53.1366 43.1945 53.0612 43.2709 52.9994C43.2684 53.0019 43.2647 53.0044 43.2621 53.0068ZM43.2784 52.9932C43.3135 52.9661 43.3436 52.9426 43.3448 52.9438C43.3461 52.9463 43.321 52.9636 43.2784 52.9932ZM45.0323 49.7968C45.0273 49.9129 45.0147 50.0278 45.0072 50.1427C45.0047 50.1835 45.0072 50.2132 45.0122 50.2329C44.9872 50.3701 44.9333 50.5258 44.9083 50.6234C44.8769 50.7457 44.8419 50.9718 44.7792 51.1349C44.768 51.1423 44.7492 51.1658 44.7291 51.2078C44.6828 51.2992 44.6402 51.3907 44.5913 51.4809C44.5099 51.6304 44.4222 51.7749 44.3282 51.9158C44.2907 51.9726 44.2506 52.027 44.2117 52.0826C44.2105 52.0851 44.208 52.0876 44.2067 52.09C44.0852 52.2272 43.9662 52.3643 43.8372 52.4941C43.7282 52.6028 43.6154 52.7078 43.5002 52.8104C43.4275 52.8734 43.3523 52.9339 43.2784 52.9957C43.0705 53.1341 42.4529 53.5147 42.3802 53.553C42.2274 53.6345 42.072 53.7124 41.9154 53.784C41.8791 53.8001 41.5772 53.9582 41.8252 53.8273C42.0846 53.6901 41.7263 53.8643 41.6912 53.8779C41.2615 54.0398 40.8218 54.172 40.3758 54.282C39.99 54.3771 39.5991 54.4537 39.207 54.5192C39.103 54.5365 39.0003 54.5526 38.8963 54.5674C38.8825 54.5699 38.6357 54.6007 38.647 54.5995C38.6119 54.6032 38.5844 54.6069 38.5806 54.6069C38.4553 54.6217 38.3301 54.6341 38.2048 54.6477C37.2276 54.7465 36.2442 54.8145 35.2621 54.8343C34.7447 54.8442 34.2273 54.8392 33.7099 54.8096C33.4531 54.7947 33.1963 54.775 32.9407 54.7478C32.8681 54.7404 32.7478 54.7428 32.6852 54.7181C32.9069 54.7478 32.9244 54.749 32.7378 54.7231C32.6538 54.7095 32.5687 54.6959 32.4847 54.6811C32.3945 54.6662 32.3068 54.6539 32.2191 54.6465C31.7431 54.5859 31.2483 54.7181 30.8975 55.095C30.8699 55.1234 30.8148 55.1666 30.7647 55.2099C30.7835 55.2 30.7985 55.1951 30.8085 55.1938C30.7948 55.2099 30.781 55.2272 30.7672 55.2432C30.7609 55.247 30.7559 55.2507 30.7484 55.2556C30.7271 55.268 30.7058 55.2816 30.6833 55.2939C30.6783 55.3013 30.6732 55.31 30.6707 55.3162C30.6732 55.3087 30.6757 55.3026 30.6795 55.2951C30.657 55.3087 30.6344 55.3223 30.6119 55.3347C30.5968 55.3433 30.5617 55.3557 30.5304 55.3705C30.4177 55.4002 30.3012 55.4298 30.1922 55.4657C30.0657 55.4743 29.9391 55.4755 29.8113 55.4706C29.7575 55.4681 29.7011 55.4595 29.6472 55.4595C29.641 55.4595 29.636 55.4595 29.6297 55.4595C29.5232 55.4348 29.403 55.4014 29.3729 55.394C29.2651 55.3656 29.1587 55.3335 29.0547 55.2964C29.0259 55.2865 28.9946 55.2729 28.962 55.2593C28.7415 55.1345 28.516 55.0246 28.3043 54.8825C28.2755 54.8639 28.1702 54.7861 28.1189 54.7502C28.0688 54.707 28.0162 54.6662 27.966 54.623C27.7669 54.4512 27.5764 54.2696 27.391 54.083C26.6607 53.3417 26.0067 52.5237 25.3566 51.7144C25.2676 51.6032 25.1774 51.4908 25.0885 51.3796C25.0509 51.3314 25.0121 51.2832 24.9745 51.235C24.8692 51.1016 25.0121 51.2832 25.0371 51.3153C24.8567 51.0954 24.6888 50.8656 24.5185 50.6394C24.1852 50.1996 23.8583 49.756 23.5376 49.3087C22.2522 47.5171 21.0621 45.66 19.9722 43.7473C19.7004 43.2691 19.4335 42.7873 19.1742 42.3017C19.0615 42.0904 18.9487 41.8791 18.841 41.6653C18.7784 41.5405 18.717 41.4157 18.6568 41.2897C18.6318 41.2354 18.6067 41.181 18.5817 41.1279C18.519 40.9956 18.5303 41.0364 18.5616 41.1056C18.4627 40.9092 18.405 40.662 18.3449 40.4594C18.3061 40.3272 18.271 40.1937 18.2409 40.0591C18.2297 40.0072 18.2221 39.954 18.2096 39.9021C18.1958 39.7045 18.1846 39.5092 18.1958 39.3103C18.1971 39.2806 18.2008 39.2498 18.2033 39.2201C18.2246 39.1213 18.2434 39.0212 18.2722 38.9223C18.2798 38.8964 18.3073 38.8185 18.3311 38.7518C18.3574 38.6987 18.3925 38.627 18.4063 38.6023C18.4213 38.5776 18.4364 38.5529 18.4514 38.5282C18.4401 38.5368 18.4288 38.5442 18.4151 38.5529C18.4288 38.5442 18.4414 38.5343 18.4551 38.5232C18.4664 38.5059 18.4764 38.4899 18.4865 38.4726C18.5328 38.3947 18.5654 38.3885 18.5541 38.4194C18.5942 38.3737 18.633 38.3255 18.6719 38.2909C18.6756 38.2885 18.6794 38.2848 18.6831 38.2823C18.7934 38.2267 18.8949 38.1501 19.0051 38.0932C19.0853 38.0512 19.1905 38.0216 19.2694 37.9734C19.3183 37.9561 19.3684 37.9376 19.4185 37.9203C20.4796 37.5558 21.5883 37.2938 22.6882 37.0726C22.836 37.043 22.9851 37.0146 23.1329 36.9874C23.262 36.9812 23.391 36.959 23.515 36.9182C23.7994 36.8688 24.0838 36.8231 24.3694 36.7823C24.4107 36.7761 24.4533 36.7699 24.4959 36.7637C24.5047 36.7637 24.516 36.7613 24.531 36.76C24.6638 36.7452 24.7953 36.7279 24.9281 36.7131C25.2375 36.6785 25.547 36.6476 25.8564 36.6217C27.0152 36.5253 28.1878 36.4783 29.3503 36.5352C29.6084 36.5475 29.8665 36.5673 30.1245 36.5932C30.1421 36.5945 30.1596 36.5969 30.1772 36.5994C30.2949 36.6538 30.5091 36.6488 30.6369 36.6735C30.8887 36.7217 31.138 36.7786 31.3848 36.8478C31.4976 36.8799 31.609 36.9133 31.7193 36.9503C31.7932 36.975 31.8659 36.9997 31.9385 37.0269C31.946 37.0294 31.9611 37.0356 31.9774 37.0418C32.035 37.0677 32.1152 37.1035 32.1415 37.1159C32.2505 37.169 32.3569 37.2246 32.4622 37.2852C32.5511 37.3358 32.6388 37.3902 32.7253 37.4458C32.7641 37.4717 32.8142 37.5162 32.8593 37.5434C33.0096 37.6756 33.1537 37.8103 33.2865 37.961C33.294 37.9697 33.3015 37.9783 33.3078 37.9882C33.3817 38.1056 33.4631 38.218 33.5308 38.3391C33.5834 38.433 33.6285 38.5319 33.6786 38.627C33.6936 38.6727 33.7049 38.716 33.7062 38.7197C33.7901 38.968 33.8552 39.2226 33.9041 39.4796C33.9078 39.5006 33.9116 39.5216 33.9154 39.5426C33.9154 39.5698 33.9179 39.597 33.9216 39.6241C33.9216 39.7267 33.9342 39.8292 33.958 39.9306C33.9767 40.1937 33.9843 40.4582 33.983 40.7226C33.983 40.9895 33.973 41.2564 33.958 41.5232C33.9504 41.6567 33.9392 41.7889 33.9304 41.9223C33.9304 41.9322 33.9279 41.9495 33.9254 41.9668C33.9229 41.9804 33.9204 41.9915 33.9191 41.9977C33.8953 42.1176 33.8602 42.2349 33.8277 42.3523C33.8214 42.3634 33.8139 42.3783 33.8039 42.3968C33.7913 42.4215 33.7675 42.4499 33.7513 42.4685C33.73 42.4895 33.7087 42.5105 33.6874 42.5303C33.6034 42.5587 33.4368 42.6995 33.3842 42.7292C33.2877 42.7835 33.1888 42.8342 33.0898 42.8836C32.9996 42.9281 32.9069 42.9701 32.8154 43.0109C32.8004 43.0171 32.7816 43.0233 32.7578 43.0319C32.3482 43.1863 31.9272 43.3087 31.4976 43.4001C31.4023 43.4199 31.3071 43.4396 31.2107 43.4557C31.1693 43.4631 31.0415 43.4817 30.9764 43.4928C30.9526 43.4953 30.9313 43.4977 30.92 43.499C30.791 43.5113 30.6607 43.5212 30.5317 43.5286C30.0932 43.5533 29.6522 43.5484 29.215 43.5138C29.1173 43.5064 29.0209 43.4952 28.9231 43.4866C28.9231 43.4866 28.9219 43.4866 28.9206 43.4866C28.6951 43.452 28.4709 43.4088 28.2492 43.3581C27.837 43.2642 27.4299 43.1443 27.034 42.9973C26.9689 42.9738 26.905 42.9479 26.8398 42.9219C26.8098 42.9083 26.7784 42.8947 26.7484 42.8812C26.5417 42.7873 26.34 42.6847 26.1408 42.5747C25.9566 42.4734 25.7762 42.3659 25.5996 42.251C25.5044 42.1892 25.4104 42.1262 25.3177 42.062C25.3027 42.0508 25.2701 42.0274 25.2338 42.0014C25.195 41.9693 25.0684 41.8704 25.0334 41.8408C24.9594 41.7778 24.8868 41.7148 24.8141 41.6493C24.6463 41.4973 24.4859 41.3379 24.3306 41.1736C23.7468 40.557 22.6068 40.5484 22.0242 41.1736C21.4104 41.8334 21.4016 42.791 22.0242 43.4483C25.111 46.7078 30.1771 47.6036 34.2849 45.8639C35.5753 45.3177 36.6777 44.417 37.0272 43.0158C37.1888 42.3659 37.2577 41.674 37.2615 40.9796C38.3388 42.0756 39.663 42.9256 41.1901 43.3013C41.928 43.4829 42.6921 43.5521 43.4488 43.5125C43.8772 44.7222 44.3671 45.9108 44.7028 47.1501C44.8055 47.5307 44.8932 47.915 44.9596 48.3029C44.9697 48.3598 44.9822 48.4178 44.9922 48.4772C44.9922 48.5117 44.996 48.5501 44.9985 48.576C45.0198 48.7898 45.0348 49.0047 45.0411 49.2185C45.0461 49.4125 45.0448 49.6065 45.0348 49.8005L45.0323 49.7968ZM33.6811 42.5303C33.6673 42.5438 33.6535 42.5562 33.6398 42.5698C33.4944 42.7119 33.6059 42.5698 33.6811 42.5303ZM45.695 39.461C45.695 39.461 45.6875 39.466 45.6837 39.4685C45.7626 39.4129 45.8541 39.3585 45.695 39.461ZM47.1444 35.3366C47.1407 35.7592 47.1269 36.183 47.0881 36.6044C47.0818 36.6711 47.0805 36.7514 47.073 36.8268C47.063 36.8564 47.0542 36.8885 47.0492 36.917C47.0066 37.1604 46.954 37.4025 46.8876 37.641C46.8363 37.8239 46.7711 38.0006 46.7085 38.1797V38.1822C46.7035 38.1909 46.6972 38.2007 46.6909 38.2119C46.6458 38.2934 46.6057 38.3787 46.5606 38.459C46.5256 38.5208 46.2713 38.8408 46.26 38.9149C46.1948 38.989 46.1272 39.0607 46.057 39.1311C45.9844 39.204 45.6649 39.4129 45.6136 39.5142C45.5572 39.5525 45.5008 39.5908 45.4419 39.6266C45.2979 39.7156 45.1513 39.7984 44.9997 39.8737C44.9571 39.8947 44.783 39.9503 44.7341 39.9911C44.7016 40.0035 44.669 40.0146 44.6364 40.0269C44.5074 40.0714 44.3771 40.1097 44.2456 40.1443C44.2117 40.153 44.1779 40.1616 44.1441 40.1715C44.0263 40.2012 43.9073 40.2271 43.7871 40.2506C43.7758 40.2531 43.6893 40.2654 43.6229 40.2765C43.5641 40.2827 43.5039 40.2889 43.4952 40.2889C43.3736 40.2975 43.2509 40.3037 43.1294 40.305C42.9465 40.3074 42.5706 40.3519 42.399 40.2716C42.4629 40.2802 42.5268 40.2889 42.5907 40.2988C42.5105 40.2864 42.4303 40.2741 42.3514 40.258C42.2123 40.232 42.0745 40.1999 41.9367 40.1629C41.9004 40.153 41.6035 40.0628 41.4168 39.9985C41.4507 40.0171 41.4582 40.022 41.388 39.9886C41.3129 39.9627 41.2603 39.9429 41.2628 39.938C41.264 39.9343 41.274 39.9355 41.2878 39.9405C41.1863 39.891 41.0849 39.8428 40.9846 39.7897C40.7992 39.6909 40.6188 39.5834 40.4435 39.4672C40.3645 39.4153 40.2881 39.361 40.2117 39.3078C40.1741 39.2782 40.1378 39.2473 40.1002 39.2176C40.0476 39.1731 39.9962 39.1262 39.9436 39.0805C40.0551 38.9866 40.1666 38.8927 40.2743 38.7938C41.4795 37.6991 42.3163 36.3004 42.87 34.7905C43.3498 33.4832 43.5628 32.0685 43.6242 30.6785C43.9086 30.7464 44.1904 30.8255 44.4685 30.9194C44.5387 30.9429 44.6076 30.9688 44.6778 30.9948C44.6753 30.9923 44.6727 30.9886 44.6715 30.9861C44.6727 30.9886 44.6765 30.9923 44.6778 30.9948C44.7103 31.0071 44.7442 31.0195 44.7767 31.0318C44.9534 31.0961 44.788 31.0837 44.7041 31.022C44.8143 31.1084 45.13 31.2061 45.2227 31.2567C45.3718 31.3383 45.5184 31.426 45.6612 31.5187C45.685 31.5347 45.8528 31.6694 45.9017 31.6892C46.0558 31.8189 46.2036 31.9573 46.3414 32.1031C46.3865 32.1513 46.4291 32.2032 46.4755 32.2514C46.478 32.2551 46.4805 32.2575 46.4842 32.26C46.5819 32.4046 46.6797 32.5479 46.7636 32.7024C46.7711 32.7159 46.8124 32.7938 46.8438 32.8543C46.8713 32.9272 46.8964 33.0001 46.9189 33.0743C46.9778 33.2608 47.0242 33.4524 47.0617 33.6439C47.0693 33.6822 47.0755 33.7217 47.083 33.76C47.1119 33.9404 47.1093 33.9157 47.0755 33.6834C47.1106 33.7835 47.1018 33.9318 47.1093 34.0368C47.1432 34.468 47.1469 34.9017 47.1432 35.3329L47.1444 35.3366ZM41.3617 39.9788C41.3717 39.9837 41.3805 39.9874 41.388 39.9923C41.3981 39.9961 41.4068 39.9985 41.4168 40.0022C41.3818 39.9837 41.3216 39.954 41.2866 39.9429C41.3116 39.9553 41.3354 39.9664 41.3605 39.9788H41.3617ZM44.7041 31.0244C44.694 31.017 44.6865 31.0084 44.679 30.9997C44.6853 31.0084 44.6928 31.0158 44.7041 31.0244ZM44.6778 30.9972C44.6778 30.9972 44.679 30.9985 44.6803 30.9997C44.6803 30.9997 44.679 30.9985 44.679 30.9972H44.6778Z" fill="#151515"/>
</svg>
