<svg width="62" height="62" viewBox="0 0 62 62" fill="none" xmlns="http://www.w3.org/2000/svg">
<path d="M50.5963 43.5782C50.4814 43.1087 50.28 42.6836 49.9921 42.3018C49.7487 41.8681 49.4286 41.4962 49.0308 41.1861C48.7738 41.0156 48.5168 40.8451 48.2598 40.6745C47.7569 40.4064 47.2219 40.2705 46.6535 40.268C46.4039 40.3101 46.1531 40.3521 45.9035 40.3941C45.4105 40.5658 45.0262 40.8747 44.7532 41.3195C44.6926 41.3912 44.6308 41.4616 44.5703 41.5333C43.1345 43.1618 41.6024 44.7063 39.9825 46.1519C38.6296 47.3603 37.2148 48.4995 35.7482 49.5671C34.5904 43.745 33.5896 37.8871 33.0027 31.9785C32.4393 26.3083 32.4677 20.5529 31.3692 14.9446C31.1023 13.5817 30.7996 12.2288 30.403 10.9005C30.5018 10.966 30.5995 11.0327 30.6983 11.0994C33.0052 12.6464 35.3108 14.1934 37.6176 15.7403C38.9199 16.6139 40.2222 17.4874 41.5246 18.361C41.8557 18.6267 42.219 18.8318 42.6144 18.9763C43.0468 19.1864 43.5015 19.3322 43.9784 19.4113C44.4504 19.5188 44.9261 19.5558 45.4055 19.5237C45.8269 19.5398 46.2408 19.4866 46.6473 19.3655C46.8611 19.2766 47.0748 19.1876 47.2886 19.0987C47.6395 18.9146 47.8668 18.6328 47.9682 18.2523C47.957 18.0781 47.9472 17.9038 47.936 17.7296C47.7804 17.3182 47.5234 16.9833 47.1663 16.7226C45.0386 15.2955 42.9109 13.8684 40.7832 12.4413C38.6555 11.0142 36.5278 9.58707 34.4001 8.15997C33.3276 7.44085 32.2551 6.72174 31.1827 6.00262C30.6551 5.64924 30.1275 5.29463 29.5999 4.94125C29.2774 4.72502 28.9549 4.50756 28.6225 4.30863C28.562 4.27279 28.5002 4.24067 28.4372 4.20978C28.1159 4.05657 27.7798 3.89841 27.4401 3.78844C26.8741 3.60681 26.2625 3.45854 25.6596 3.40294C25.6435 3.398 25.6287 3.39182 25.6126 3.38688C25.1554 3.20524 24.6847 3.11381 24.1991 3.11505C23.7617 3.05821 23.3292 3.09033 22.9005 3.21389C22.2308 3.43136 21.4808 3.8218 21.2683 4.56069C21.2349 4.77321 21.2028 4.98697 21.1694 5.19949C21.1348 5.23656 21.1015 5.27362 21.0669 5.31069C20.6282 5.78269 20.1908 6.25468 19.7534 6.72791C18.8848 7.66449 18.015 8.60231 17.1463 9.53888C15.4079 11.4133 13.6706 13.2877 11.9321 15.1608C11.7171 15.3931 11.5009 15.6254 11.2859 15.8577C11.0858 16.0764 11.0166 16.321 11.0746 16.5904C11.0561 16.8832 11.1537 17.1427 11.3687 17.3688C11.5973 17.6641 11.8741 17.9001 12.199 18.0756C12.5536 18.3314 12.9429 18.5229 13.3654 18.6514C14.26 18.9417 15.2534 19.1382 16.1937 19.0109C16.8856 18.917 17.5825 18.7552 18.078 18.2214C19.9783 16.1728 21.8774 14.1242 23.7778 12.0756C23.9359 12.6588 24.078 13.2457 24.2053 13.8363C25.1666 18.7712 25.2407 23.8174 25.6534 28.8141C26.1254 34.5337 27.0101 40.2112 28.0789 45.8467C28.3161 47.0959 28.5632 48.3439 28.814 49.5893C28.3507 49.3459 27.8873 49.1025 27.4277 48.8542C25.1431 47.6223 22.8894 46.3323 20.6727 44.9831C19.4248 44.2244 18.1879 43.446 16.9622 42.6515C16.5854 42.4316 16.1826 42.3117 15.7551 42.2932C15.3696 42.2079 14.9853 42.2339 14.6047 42.371C14.2205 42.4822 13.919 42.6972 13.7015 43.0135C13.4173 43.2767 13.2406 43.6066 13.1727 44.002C13.148 44.2689 13.122 44.537 13.0973 44.8039C13.127 45.4093 13.2814 45.9827 13.5631 46.5201C13.7423 46.7957 13.9214 47.0712 14.1018 47.3467C14.5059 47.8533 14.9939 48.2574 15.566 48.5601C17.7604 49.9835 19.9907 51.3513 22.2567 52.6573C24.5228 53.9646 26.8223 55.2113 29.1526 56.3974C29.8766 56.7657 30.6032 57.1252 31.3334 57.4823C31.4854 57.6021 31.646 57.7109 31.8202 57.8048C32.2243 58.0581 32.6567 58.2323 33.1164 58.3287C33.2053 58.3633 33.2943 58.3966 33.3832 58.4312C33.7601 58.6129 34.1604 58.6969 34.5867 58.6833C34.7115 58.6623 34.8363 58.6413 34.9623 58.6203C35.3478 58.598 35.6913 58.4572 35.9953 58.1977C36.0015 58.194 36.0064 58.1903 36.0126 58.1878C36.1386 58.1285 36.2572 58.0581 36.3672 57.9765C36.6007 57.8369 36.833 57.6961 37.0641 57.5515C37.5719 57.2364 38.0736 56.9127 38.5703 56.5816C40.5645 55.2508 42.4698 53.7879 44.2725 52.2063C46.0678 50.6309 47.7593 48.9369 49.3323 47.1404C49.6819 46.7413 50.0304 46.3422 50.3739 45.9369C50.5889 45.5947 50.6964 45.2252 50.6951 44.8298C50.768 44.4085 50.7371 43.9896 50.6024 43.5745L50.5963 43.5782Z" fill="#151515"/>
</svg>
