<svg width="219" height="219" viewBox="0 0 219 219" fill="none" xmlns="http://www.w3.org/2000/svg">
<path d="M78.4993 0H69.7791V8.72029H78.4993V0Z" fill="#151515"/>
<path d="M87.2224 0H78.5021V8.72029H87.2224V0Z" fill="#151515"/>
<path d="M95.9398 0H87.2195V8.72029H95.9398V0Z" fill="#151515"/>
<path d="M113.359 0H104.639V8.72029H113.359V0Z" fill="#151515"/>
<path d="M122.102 0H113.382V8.72029H122.102V0Z" fill="#151515"/>
<path d="M87.2224 8.75977H78.5021V17.4801H87.2224V8.75977Z" fill="#151515"/>
<path d="M104.661 8.75977H95.941V17.4801H104.661V8.75977Z" fill="#151515"/>
<path d="M148.243 8.75977H139.522V17.4801H148.243V8.75977Z" fill="#151515"/>
<path d="M78.4993 17.4199H69.779V26.1402H78.4993V17.4199Z" fill="#151515"/>
<path d="M87.2224 17.4199H78.5021V26.1402H87.2224V17.4199Z" fill="#151515"/>
<path d="M95.94 17.4199H87.2197V26.1402H95.94V17.4199Z" fill="#151515"/>
<path d="M113.359 17.4199H104.639V26.1402H113.359V17.4199Z" fill="#151515"/>
<path d="M122.102 17.4199H113.382V26.1402H122.102V17.4199Z" fill="#151515"/>
<path d="M130.802 17.4199H122.082V26.1402H130.802V17.4199Z" fill="#151515"/>
<path d="M139.521 17.4199H130.801V26.1402H139.521V17.4199Z" fill="#151515"/>
<path d="M148.243 17.4199H139.522V26.1402H148.243V17.4199Z" fill="#151515"/>
<path d="M87.2224 26.1387H78.5021V34.859H87.2224V26.1387Z" fill="#151515"/>
<path d="M122.102 26.1387H113.382V34.859H122.102V26.1387Z" fill="#151515"/>
<path d="M130.802 26.1387H122.082V34.859H130.802V26.1387Z" fill="#151515"/>
<path d="M95.94 34.8711H87.2197V43.5914H95.94V34.8711Z" fill="#151515"/>
<path d="M104.661 34.8711H95.9409V43.5914H104.661V34.8711Z" fill="#151515"/>
<path d="M113.359 34.8711H104.639V43.5914H113.359V34.8711Z" fill="#151515"/>
<path d="M122.102 34.8711H113.382V43.5914H122.102V34.8711Z" fill="#151515"/>
<path d="M130.802 34.8711H122.082V43.5914H130.802V34.8711Z" fill="#151515"/>
<path d="M78.4993 43.5879H69.779V52.3082H78.4993V43.5879Z" fill="#151515"/>
<path d="M95.94 43.5879H87.2197V52.3082H95.94V43.5879Z" fill="#151515"/>
<path d="M104.661 43.5879H95.941V52.3082H104.661V43.5879Z" fill="#151515"/>
<path d="M113.359 43.5879H104.639V52.3082H113.359V43.5879Z" fill="#151515"/>
<path d="M130.802 43.5879H122.082V52.3082H130.802V43.5879Z" fill="#151515"/>
<path d="M78.4993 52.3633H69.779V61.0836H78.4993V52.3633Z" fill="#151515"/>
<path d="M95.94 52.3633H87.2197V61.0836H95.94V52.3633Z" fill="#151515"/>
<path d="M113.359 52.3633H104.639V61.0836H113.359V52.3633Z" fill="#151515"/>
<path d="M130.802 52.3633H122.082V61.0836H130.802V52.3633Z" fill="#151515"/>
<path d="M148.243 52.3633H139.522V61.0836H148.243V52.3633Z" fill="#151515"/>
<path d="M87.2224 61.0234H78.5021V69.7437H87.2224V61.0234Z" fill="#151515"/>
<path d="M95.94 61.0234H87.2197V69.7437H95.94V61.0234Z" fill="#151515"/>
<path d="M113.359 61.0234H104.639V69.7437H113.359V61.0234Z" fill="#151515"/>
<path d="M130.802 61.0234H122.082V69.7437H130.802V61.0234Z" fill="#151515"/>
<path d="M8.72048 69.8125H0.000183105V78.5328H8.72048V69.8125Z" fill="#151515"/>
<path d="M26.163 69.8125H17.4427V78.5328H26.163V69.8125Z" fill="#151515"/>
<path d="M61.048 69.8125H52.3277V78.5328H61.048V69.8125Z" fill="#151515"/>
<path d="M69.7674 69.8125H61.0471V78.5328H69.7674V69.8125Z" fill="#151515"/>
<path d="M87.2224 69.8125H78.5021V78.5328H87.2224V69.8125Z" fill="#151515"/>
<path d="M113.359 69.8125H104.639V78.5328H113.359V69.8125Z" fill="#151515"/>
<path d="M139.521 69.8125H130.801V78.5328H139.521V69.8125Z" fill="#151515"/>
<path d="M174.419 69.8125H165.698V78.5328H174.419V69.8125Z" fill="#151515"/>
<path d="M200.579 69.8125H191.859V78.5328H200.579V69.8125Z" fill="#151515"/>
<path d="M218.02 69.8125H209.299V78.5328H218.02V69.8125Z" fill="#151515"/>
<path d="M8.72048 78.4883H0.000183105V87.2086H8.72048V78.4883Z" fill="#151515"/>
<path d="M26.163 78.4883H17.4427V87.2086H26.163V78.4883Z" fill="#151515"/>
<path d="M52.3249 78.4883H43.6046V87.2086H52.3249V78.4883Z" fill="#151515"/>
<path d="M69.7674 78.4883H61.0471V87.2086H69.7674V78.4883Z" fill="#151515"/>
<path d="M95.94 78.4883H87.2197V87.2086H95.94V78.4883Z" fill="#151515"/>
<path d="M104.661 78.4883H95.941V87.2086H104.661V78.4883Z" fill="#151515"/>
<path d="M130.802 78.4883H122.082V87.2086H130.802V78.4883Z" fill="#151515"/>
<path d="M139.521 78.4883H130.801V87.2086H139.521V78.4883Z" fill="#151515"/>
<path d="M148.243 78.4883H139.522V87.2086H148.243V78.4883Z" fill="#151515"/>
<path d="M165.698 78.4883H156.977V87.2086H165.698V78.4883Z" fill="#151515"/>
<path d="M191.861 78.4883H183.141V87.2086H191.861V78.4883Z" fill="#151515"/>
<path d="M209.298 78.4883H200.578V87.2086H209.298V78.4883Z" fill="#151515"/>
<path d="M218.02 78.4883H209.299V87.2086H218.02V78.4883Z" fill="#151515"/>
<path d="M17.4399 87.1758H8.7196V95.8961H17.4399V87.1758Z" fill="#151515"/>
<path d="M26.163 87.1758H17.4427V95.8961H26.163V87.1758Z" fill="#151515"/>
<path d="M34.8842 87.1758H26.1639V95.8961H34.8842V87.1758Z" fill="#151515"/>
<path d="M61.048 87.1758H52.3277V95.8961H61.048V87.1758Z" fill="#151515"/>
<path d="M78.4993 87.1758H69.779V95.8961H78.4993V87.1758Z" fill="#151515"/>
<path d="M95.94 87.1758H87.2197V95.8961H95.94V87.1758Z" fill="#151515"/>
<path d="M104.661 87.1758H95.941V95.8961H104.661V87.1758Z" fill="#151515"/>
<path d="M130.802 87.1758H122.082V95.8961H130.802V87.1758Z" fill="#151515"/>
<path d="M139.521 87.1758H130.801V95.8961H139.521V87.1758Z" fill="#151515"/>
<path d="M174.419 87.1758H165.698V95.8961H174.419V87.1758Z" fill="#151515"/>
<path d="M183.138 87.1758H174.418V95.8961H183.138V87.1758Z" fill="#151515"/>
<path d="M191.861 87.1758H183.141V95.8961H191.861V87.1758Z" fill="#151515"/>
<path d="M200.579 87.1758H191.859V95.8961H200.579V87.1758Z" fill="#151515"/>
<path d="M218.02 87.1758H209.299V95.8961H218.02V87.1758Z" fill="#151515"/>
<path d="M26.163 95.9375H17.4427V104.658H26.163V95.9375Z" fill="#151515"/>
<path d="M34.8842 95.9375H26.1639V104.658H34.8842V95.9375Z" fill="#151515"/>
<path d="M52.3249 95.9375H43.6046V104.658H52.3249V95.9375Z" fill="#151515"/>
<path d="M69.7674 95.9375H61.0471V104.658H69.7674V95.9375Z" fill="#151515"/>
<path d="M148.243 95.9375H139.522V104.658H148.243V95.9375Z" fill="#151515"/>
<path d="M165.698 95.9375H156.977V104.658H165.698V95.9375Z" fill="#151515"/>
<path d="M174.419 95.9375H165.698V104.658H174.419V95.9375Z" fill="#151515"/>
<path d="M191.861 95.9375H183.141V104.658H191.861V95.9375Z" fill="#151515"/>
<path d="M61.048 104.654H52.3277V113.375H61.048V104.654Z" fill="#151515"/>
<path d="M69.7674 104.654H61.0471V113.375H69.7674V104.654Z" fill="#151515"/>
<path d="M78.4993 104.654H69.779V113.375H78.4993V104.654Z" fill="#151515"/>
<path d="M113.359 104.654H104.639V113.375H113.359V104.654Z" fill="#151515"/>
<path d="M139.521 104.654H130.801V113.375H139.521V104.654Z" fill="#151515"/>
<path d="M148.243 104.654H139.522V113.375H148.243V104.654Z" fill="#151515"/>
<path d="M165.698 104.654H156.977V113.375H165.698V104.654Z" fill="#151515"/>
<path d="M218.02 104.654H209.299V113.375H218.02V104.654Z" fill="#151515"/>
<path d="M17.4399 113.357H8.7196V122.078H17.4399V113.357Z" fill="#151515"/>
<path d="M34.8842 113.357H26.1639V122.078H34.8842V113.357Z" fill="#151515"/>
<path d="M78.4993 113.357H69.779V122.078H78.4993V113.357Z" fill="#151515"/>
<path d="M113.359 113.357H104.639V122.078H113.359V113.357Z" fill="#151515"/>
<path d="M122.102 113.357H113.382V122.078H122.102V113.357Z" fill="#151515"/>
<path d="M139.521 113.357H130.801V122.078H139.521V113.357Z" fill="#151515"/>
<path d="M148.243 113.357H139.522V122.078H148.243V113.357Z" fill="#151515"/>
<path d="M165.698 113.357H156.977V122.078H165.698V113.357Z" fill="#151515"/>
<path d="M174.419 113.357H165.698V122.078H174.419V113.357Z" fill="#151515"/>
<path d="M209.298 113.357H200.578V122.078H209.298V113.357Z" fill="#151515"/>
<path d="M218.02 113.357H209.299V122.078H218.02V113.357Z" fill="#151515"/>
<path d="M8.72048 122.062H0.000183105V130.783H8.72048V122.062Z" fill="#151515"/>
<path d="M17.4399 122.062H8.7196V130.783H17.4399V122.062Z" fill="#151515"/>
<path d="M34.8842 122.062H26.1639V130.783H34.8842V122.062Z" fill="#151515"/>
<path d="M43.6054 122.062H34.8851V130.783H43.6054V122.062Z" fill="#151515"/>
<path d="M61.048 122.062H52.3277V130.783H61.048V122.062Z" fill="#151515"/>
<path d="M69.7674 122.062H61.0471V130.783H69.7674V122.062Z" fill="#151515"/>
<path d="M87.2224 122.062H78.5021V130.783H87.2224V122.062Z" fill="#151515"/>
<path d="M95.94 122.062H87.2197V130.783H95.94V122.062Z" fill="#151515"/>
<path d="M113.359 122.062H104.639V130.783H113.359V122.062Z" fill="#151515"/>
<path d="M122.102 122.062H113.382V130.783H122.102V122.062Z" fill="#151515"/>
<path d="M139.521 122.062H130.801V130.783H139.521V122.062Z" fill="#151515"/>
<path d="M148.243 122.062H139.522V130.783H148.243V122.062Z" fill="#151515"/>
<path d="M191.861 122.062H183.141V130.783H191.861V122.062Z" fill="#151515"/>
<path d="M200.579 122.062H191.859V130.783H200.579V122.062Z" fill="#151515"/>
<path d="M218.02 122.062H209.299V130.783H218.02V122.062Z" fill="#151515"/>
<path d="M34.8842 130.809H26.1639V139.529H34.8842V130.809Z" fill="#151515"/>
<path d="M69.7674 130.809H61.0471V139.529H69.7674V130.809Z" fill="#151515"/>
<path d="M104.661 130.809H95.941V139.529H104.661V130.809Z" fill="#151515"/>
<path d="M113.359 130.809H104.639V139.529H113.359V130.809Z" fill="#151515"/>
<path d="M139.521 130.809H130.801V139.529H139.521V130.809Z" fill="#151515"/>
<path d="M156.976 130.809H148.256V139.529H156.976V130.809Z" fill="#151515"/>
<path d="M174.419 130.809H165.698V139.529H174.419V130.809Z" fill="#151515"/>
<path d="M183.138 130.809H174.418V139.529H183.138V130.809Z" fill="#151515"/>
<path d="M191.861 130.809H183.141V139.529H191.861V130.809Z" fill="#151515"/>
<path d="M8.72048 139.496H0.000183105V148.216H8.72048V139.496Z" fill="#151515"/>
<path d="M17.4399 139.496H8.7196V148.216H17.4399V139.496Z" fill="#151515"/>
<path d="M26.163 139.496H17.4427V148.216H26.163V139.496Z" fill="#151515"/>
<path d="M34.8842 139.496H26.1639V148.216H34.8842V139.496Z" fill="#151515"/>
<path d="M43.6054 139.496H34.8851V148.216H43.6054V139.496Z" fill="#151515"/>
<path d="M52.3249 139.496H43.6046V148.216H52.3249V139.496Z" fill="#151515"/>
<path d="M61.048 139.496H52.3277V148.216H61.048V139.496Z" fill="#151515"/>
<path d="M69.7674 139.496H61.0471V148.216H69.7674V139.496Z" fill="#151515"/>
<path d="M78.4993 139.496H69.779V148.216H78.4993V139.496Z" fill="#151515"/>
<path d="M87.2224 139.496H78.5021V148.216H87.2224V139.496Z" fill="#151515"/>
<path d="M139.521 139.496H130.801V148.216H139.521V139.496Z" fill="#151515"/>
<path d="M148.243 139.496H139.522V148.216H148.243V139.496Z" fill="#151515"/>
<path d="M156.976 139.496H148.256V148.216H156.976V139.496Z" fill="#151515"/>
<path d="M165.698 139.496H156.977V148.216H165.698V139.496Z" fill="#151515"/>
<path d="M174.419 139.496H165.698V148.216H174.419V139.496Z" fill="#151515"/>
<path d="M183.138 139.496H174.418V148.216H183.138V139.496Z" fill="#151515"/>
<path d="M209.298 139.496H200.578V148.216H209.298V139.496Z" fill="#151515"/>
<path d="M78.4993 148.258H69.779V156.978H78.4993V148.258Z" fill="#151515"/>
<path d="M95.94 148.258H87.2197V156.978H95.94V148.258Z" fill="#151515"/>
<path d="M139.521 148.258H130.801V156.978H139.521V148.258Z" fill="#151515"/>
<path d="M148.243 148.258H139.522V156.978H148.243V148.258Z" fill="#151515"/>
<path d="M183.138 148.258H174.418V156.978H183.138V148.258Z" fill="#151515"/>
<path d="M218.02 148.258H209.299V156.978H218.02V148.258Z" fill="#151515"/>
<path d="M78.4993 156.988H69.779V165.709H78.4993V156.988Z" fill="#151515"/>
<path d="M104.661 156.988H95.941V165.709H104.661V156.988Z" fill="#151515"/>
<path d="M122.102 156.988H113.382V165.709H122.102V156.988Z" fill="#151515"/>
<path d="M130.802 156.988H122.082V165.709H130.802V156.988Z" fill="#151515"/>
<path d="M148.243 156.988H139.522V165.709H148.243V156.988Z" fill="#151515"/>
<path d="M165.698 156.988H156.977V165.709H165.698V156.988Z" fill="#151515"/>
<path d="M183.138 156.988H174.418V165.709H183.138V156.988Z" fill="#151515"/>
<path d="M218.02 156.988H209.299V165.709H218.02V156.988Z" fill="#151515"/>
<path d="M87.2224 165.678H78.5021V174.398H87.2224V165.678Z" fill="#151515"/>
<path d="M130.802 165.678H122.082V174.398H130.802V165.678Z" fill="#151515"/>
<path d="M139.521 165.678H130.801V174.398H139.521V165.678Z" fill="#151515"/>
<path d="M148.243 165.678H139.522V174.398H148.243V165.678Z" fill="#151515"/>
<path d="M183.138 165.678H174.418V174.398H183.138V165.678Z" fill="#151515"/>
<path d="M209.298 165.678H200.578V174.398H209.298V165.678Z" fill="#151515"/>
<path d="M218.02 165.678H209.299V174.398H218.02V165.678Z" fill="#151515"/>
<path d="M95.94 174.424H87.2197V183.144H95.94V174.424Z" fill="#151515"/>
<path d="M104.661 174.424H95.941V183.144H104.661V174.424Z" fill="#151515"/>
<path d="M113.359 174.424H104.639V183.144H113.359V174.424Z" fill="#151515"/>
<path d="M139.521 174.424H130.801V183.144H139.521V174.424Z" fill="#151515"/>
<path d="M148.243 174.424H139.522V183.144H148.243V174.424Z" fill="#151515"/>
<path d="M156.976 174.424H148.256V183.144H156.976V174.424Z" fill="#151515"/>
<path d="M165.698 174.424H156.977V183.144H165.698V174.424Z" fill="#151515"/>
<path d="M174.419 174.424H165.698V183.144H174.419V174.424Z" fill="#151515"/>
<path d="M183.138 174.424H174.418V183.144H183.138V174.424Z" fill="#151515"/>
<path d="M218.02 174.424H209.299V183.144H218.02V174.424Z" fill="#151515"/>
<path d="M87.2224 183.143H78.5021V191.863H87.2224V183.143Z" fill="#151515"/>
<path d="M95.94 183.143H87.2197V191.863H95.94V183.143Z" fill="#151515"/>
<path d="M113.359 183.143H104.639V191.863H113.359V183.143Z" fill="#151515"/>
<path d="M139.521 183.143H130.801V191.863H139.521V183.143Z" fill="#151515"/>
<path d="M148.243 183.143H139.522V191.863H148.243V183.143Z" fill="#151515"/>
<path d="M156.976 183.143H148.256V191.863H156.976V183.143Z" fill="#151515"/>
<path d="M183.138 183.143H174.418V191.863H183.138V183.143Z" fill="#151515"/>
<path d="M200.579 183.143H191.859V191.863H200.579V183.143Z" fill="#151515"/>
<path d="M209.298 183.143H200.578V191.863H209.298V183.143Z" fill="#151515"/>
<path d="M78.4993 191.846H69.779V200.566H78.4993V191.846Z" fill="#151515"/>
<path d="M113.359 191.846H104.639V200.566H113.359V191.846Z" fill="#151515"/>
<path d="M130.802 191.846H122.082V200.566H130.802V191.846Z" fill="#151515"/>
<path d="M156.976 191.846H148.256V200.566H156.976V191.846Z" fill="#151515"/>
<path d="M174.419 191.846H165.698V200.566H174.419V191.846Z" fill="#151515"/>
<path d="M183.138 191.846H174.418V200.566H183.138V191.846Z" fill="#151515"/>
<path d="M191.861 191.846H183.141V200.566H191.861V191.846Z" fill="#151515"/>
<path d="M209.298 191.846H200.578V200.566H209.298V191.846Z" fill="#151515"/>
<path d="M218.02 191.846H209.299V200.566H218.02V191.846Z" fill="#151515"/>
<path d="M95.94 200.578H87.2197V209.298H95.94V200.578Z" fill="#151515"/>
<path d="M104.661 200.578H95.941V209.298H104.661V200.578Z" fill="#151515"/>
<path d="M113.359 200.578H104.639V209.298H113.359V200.578Z" fill="#151515"/>
<path d="M148.243 200.578H139.522V209.298H148.243V200.578Z" fill="#151515"/>
<path d="M156.976 200.578H148.256V209.298H156.976V200.578Z" fill="#151515"/>
<path d="M174.419 200.578H165.698V209.298H174.419V200.578Z" fill="#151515"/>
<path d="M183.138 200.578H174.418V209.298H183.138V200.578Z" fill="#151515"/>
<path d="M78.4993 209.295H69.779V218.015H78.4993V209.295Z" fill="#151515"/>
<path d="M87.2224 209.295H78.5021V218.015H87.2224V209.295Z" fill="#151515"/>
<path d="M113.359 209.295H104.639V218.015H113.359V209.295Z" fill="#151515"/>
<path d="M122.102 209.295H113.382V218.015H122.102V209.295Z" fill="#151515"/>
<path d="M130.802 209.295H122.082V218.015H130.802V209.295Z" fill="#151515"/>
<path d="M139.521 209.295H130.801V218.015H139.521V209.295Z" fill="#151515"/>
<path d="M148.243 209.295H139.522V218.015H148.243V209.295Z" fill="#151515"/>
<path d="M165.698 209.295H156.977V218.015H165.698V209.295Z" fill="#151515"/>
<path d="M191.861 209.295H183.141V218.015H191.861V209.295Z" fill="#151515"/>
<path d="M218.02 209.295H209.299V218.015H218.02V209.295Z" fill="#151515"/>
<path d="M51.8875 0H9.15808H0.00177002V9.15631V51.8857V61.042H9.15808H51.8875H61.0438V51.8857V9.15631V0H51.8875ZM51.8875 51.8857H9.15808V9.15631H51.8875V51.8857Z" fill="#151515"/>
<path d="M208.863 0H166.134H156.978V9.15631V51.8857V61.042H166.134H208.863H218.02V51.8857V9.15631V0H208.863ZM208.863 51.8857H166.134V9.15631H208.863V51.8857Z" fill="#151515"/>
<path d="M51.8857 156.988H9.15631H0V166.145V208.874V218.03H9.15631H51.8857H61.042V208.874V166.145V156.988H51.8857ZM51.8857 208.874H9.15631V166.145H51.8857V208.874Z" fill="#151515"/>
<path d="M43.6036 17.4199H17.4427V43.5808H43.6036V17.4199Z" fill="#151515"/>
<path d="M200.579 17.4199H174.418V43.5808H200.579V17.4199Z" fill="#151515"/>
<path d="M43.6036 174.424H17.4427V200.585H43.6036V174.424Z" fill="#151515"/>
</svg>
