<svg width="64" height="64" viewBox="0 0 64 64" xmlns="http://www.w3.org/2000/svg" role="img" aria-label="Rep Chess KRD">
  <rect width="64" height="64" rx="12" fill="#f7f7f2"/>
  <g transform="translate(3 15.6) scale(0.513)">
    <path d="M14.7361 17.7602L9.81609 12.0242H6.14409V17.7602H0.480094V0.000178337H13.8961C15.3841 0.000178337 16.6961 0.248178 17.8321 0.744179C18.9841 1.24018 19.8721 1.93618 20.4961 2.83218C21.1361 3.71218 21.4561 4.73618 21.4561 5.90418V6.00018C21.4561 7.52018 21.0081 8.77618 20.1121 9.76818C19.2321 10.7602 18.0081 11.4242 16.4401 11.7602L21.6001 17.7602H14.7361ZM15.8881 6.04818C15.8881 5.42418 15.7521 4.96818 15.4801 4.68018C15.2241 4.39218 14.8881 4.21618 14.4721 4.15218C14.0561 4.08818 13.4481 4.05618 12.6481 4.05618H11.7841C10.6001 4.08818 8.72009 4.10418 6.14409 4.10418V7.92018H12.6001H12.6481C13.4481 7.92018 14.0561 7.88818 14.4721 7.82418C14.8881 7.76018 15.2241 7.60018 15.4801 7.34418C15.7521 7.07218 15.8881 6.64018 15.8881 6.04818ZM40.0898 10.8722H29.0018V13.5842L42.1058 13.4882V17.7842H23.0738V0.0241795H42.1058L42.1298 4.32018H29.0018V6.67218H40.0898V10.8722ZM57.1617 0.0241795C58.6497 0.0241795 59.9617 0.272179 61.0977 0.768178C62.2497 1.26418 63.1377 1.96018 63.7617 2.85618C64.4017 3.73618 64.7217 4.76018 64.7217 5.92818V6.02418C64.7217 7.94418 64.0657 9.43218 62.7537 10.4882C61.4417 11.5282 59.6497 12.0482 57.3777 12.0482H49.6737V17.7842H43.7457V0.0241795H57.1617ZM56.1057 7.84818C56.9377 7.84818 57.5537 7.82418 57.9537 7.77618C58.3697 7.72818 58.7137 7.57618 58.9857 7.32018C59.2577 7.06418 59.3937 6.64018 59.3937 6.04818C59.3937 5.44018 59.2577 5.00018 58.9857 4.72818C58.7137 4.45618 58.3617 4.28818 57.9297 4.22418C57.4977 4.16018 56.8897 4.12818 56.1057 4.12818H55.3137C54.9937 4.12818 54.4337 4.13618 53.6337 4.15218C52.8337 4.15218 51.5137 4.15218 49.6737 4.15218V7.84818H56.0817H56.1057ZM9.37879e-05 31.9282C9.37879e-05 30.1522 0.520094 28.5522 1.56009 27.1282C2.61609 25.7042 4.04809 24.5922 5.85609 23.7922C7.68009 22.9762 9.69609 22.5682 11.9041 22.5682C13.8881 22.5682 15.6801 22.8882 17.2801 23.5282C18.8801 24.1522 20.1921 25.0402 21.2161 26.1922C22.2401 27.3282 22.9201 28.6642 23.2561 30.2002H17.1121C16.8721 29.5602 16.4641 29.0082 15.8881 28.5442C15.3281 28.0642 14.6961 27.7042 13.9921 27.4642C13.2881 27.2242 12.6001 27.1042 11.9281 27.1042C10.9841 27.1042 10.0641 27.2962 9.16809 27.6802C8.28809 28.0642 7.56809 28.6242 7.00809 29.3602C6.46409 30.0802 6.19209 30.9362 6.19209 31.9282C6.19209 32.9202 6.46409 33.7842 7.00809 34.5202C7.55209 35.2402 8.25609 35.7922 9.12009 36.1762C10.0001 36.5442 10.9361 36.7282 11.9281 36.7282C13.0321 36.7282 14.0481 36.4642 14.9761 35.9362C15.9201 35.4082 16.6161 34.6562 17.0641 33.6802H23.2321C22.8801 35.2002 22.1921 36.5362 21.1681 37.6882C20.1441 38.8242 18.8401 39.7042 17.2561 40.3282C15.6721 40.9522 13.8881 41.2642 11.9041 41.2642C9.71209 41.2642 7.70409 40.8562 5.88009 40.0402C4.07209 39.2242 2.64009 38.1042 1.58409 36.6802C0.528094 35.2562 9.37879e-05 33.6722 9.37879e-05 31.9282ZM30.6659 29.3362H40.1459V23.0242H46.0499V40.7842H40.1459V33.9922H30.6659V40.7842H24.7379V23.0242H30.6659V29.3362ZM65.0273 33.8722H53.9393V36.5842L67.0433 36.4882V40.7842H48.0113V23.0242H67.0433L67.0673 27.3202H53.9393V29.6722H65.0273V33.8722ZM81.6912 30.2242C83.2592 30.2242 84.6272 30.3362 85.7952 30.5602C86.9792 30.7682 87.9632 31.2242 88.7472 31.9282C89.5472 32.6322 89.9472 33.6562 89.9472 35.0002C89.9472 37.4802 88.8432 39.1602 86.6352 40.0402C84.4432 40.9042 81.9792 41.3362 79.2432 41.3362C76.5232 41.3362 74.0032 40.8962 71.6832 40.0162C69.3632 39.1202 68.2032 37.4242 68.2032 34.9282L74.3232 34.9042C74.3232 36.0082 74.8192 36.7122 75.8112 37.0162C76.8192 37.3042 77.9952 37.4482 79.3392 37.4482C80.6032 37.4482 81.6832 37.2642 82.5792 36.8962C83.4912 36.5282 83.9472 35.9282 83.9472 35.0962V35.0722C83.9472 34.6082 83.6672 34.2642 83.1072 34.0402C82.5472 33.8162 81.9472 33.6802 81.3072 33.6322C80.6672 33.5842 79.8992 33.5522 79.0032 33.5362H77.2032C75.4752 33.5362 73.9712 33.4322 72.6912 33.2242C71.4272 33.0002 70.3632 32.5202 69.4992 31.7842C68.6352 31.0482 68.2032 29.9602 68.2032 28.5202C68.2032 26.0242 69.3232 24.4002 71.5632 23.6482C73.8192 22.8802 76.3792 22.4962 79.2432 22.4962C81.9312 22.4962 84.3872 22.9362 86.6112 23.8162C88.8352 24.6962 89.9472 26.3922 89.9472 28.9042H83.9232C83.9232 28.1042 83.4672 27.5122 82.5552 27.1282C81.6592 26.7282 80.5632 26.5042 79.2672 26.4562C77.8752 26.4562 76.6992 26.6162 75.7392 26.9362C74.7792 27.2562 74.2992 27.7602 74.2992 28.4482C74.2992 29.1682 74.7872 29.6482 75.7632 29.8882C76.7392 30.1282 77.8432 30.2482 79.0752 30.2482L81.6912 30.2242ZM104.449 30.2242C106.017 30.2242 107.385 30.3362 108.553 30.5602C109.737 30.7682 110.721 31.2242 111.505 31.9282C112.305 32.6322 112.705 33.6562 112.705 35.0002C112.705 37.4802 111.601 39.1602 109.393 40.0402C107.201 40.9042 104.737 41.3362 102.001 41.3362C99.281 41.3362 96.761 40.8962 94.441 40.0162C92.121 39.1202 90.961 37.4242 90.961 34.9282L97.081 34.9042C97.081 36.0082 97.577 36.7122 98.569 37.0162C99.577 37.3042 100.753 37.4482 102.097 37.4482C103.361 37.4482 104.441 37.2642 105.337 36.8962C106.249 36.5282 106.705 35.9282 106.705 35.0962V35.0722C106.705 34.6082 106.425 34.2642 105.865 34.0402C105.305 33.8162 104.705 33.6802 104.065 33.6322C103.425 33.5842 102.657 33.5522 101.761 33.5362H99.961C98.233 33.5362 96.729 33.4322 95.449 33.2242C94.185 33.0002 93.121 32.5202 92.257 31.7842C91.393 31.0482 90.961 29.9602 90.961 28.5202C90.961 26.0242 92.081 24.4002 94.321 23.6482C96.577 22.8802 99.137 22.4962 102.001 22.4962C104.689 22.4962 107.145 22.9362 109.369 23.8162C111.593 24.6962 112.705 26.3922 112.705 28.9042H106.681C106.681 28.1042 106.225 27.5122 105.313 27.1282C104.417 26.7282 103.321 26.5042 102.025 26.4562C100.633 26.4562 99.457 26.6162 98.497 26.9362C97.537 27.2562 97.057 27.7602 97.057 28.4482C97.057 29.1682 97.545 29.6482 98.521 29.8882C99.497 30.1282 100.601 30.2482 101.833 30.2482L104.449 30.2242ZM11.2081 54.1602L20.8801 63.7842H13.6081L6.40809 56.3442V63.7842H0.480094V46.0242H6.40809V52.1922L13.1761 46.0242H20.5201L11.2081 54.1602ZM35.6658 63.7602L30.7458 58.0242H27.0738V63.7602H21.4098V46.0002H34.8258C36.3138 46.0002 37.6258 46.2482 38.7618 46.7442C39.9138 47.2402 40.8018 47.9362 41.4258 48.8322C42.0658 49.7122 42.3858 50.7362 42.3858 51.9042V52.0002C42.3858 53.5202 41.9378 54.7762 41.0418 55.7682C40.1618 56.7602 38.9378 57.4242 37.3698 57.7602L42.5298 63.7602H35.6658ZM36.8178 52.0482C36.8178 51.4242 36.6818 50.9682 36.4098 50.6802C36.1538 50.3922 35.8178 50.2162 35.4018 50.1522C34.9858 50.0882 34.3778 50.0562 33.5778 50.0562H32.7138C31.5298 50.0882 29.6498 50.1042 27.0738 50.1042V53.9202H33.5298H33.5778C34.3778 53.9202 34.9858 53.8882 35.4018 53.8242C35.8178 53.7602 36.1538 53.6002 36.4098 53.3442C36.6818 53.0722 36.8178 52.6402 36.8178 52.0482ZM64.3075 54.9282C64.3075 56.6082 63.8595 58.1202 62.9635 59.4642C62.0835 60.8082 60.8275 61.8642 59.1955 62.6322C57.5635 63.4002 55.6675 63.7842 53.5075 63.7842V63.8082H48.7315V63.7842H44.0035V46.0242H53.4835C55.6435 46.0242 57.5395 46.4082 59.1715 47.1762C60.8195 47.9442 62.0835 49.0002 62.9635 50.3442C63.8595 51.6882 64.3075 53.2162 64.3075 54.9282ZM53.6275 59.0322C55.0195 59.0322 56.1715 58.6962 57.0835 58.0242C58.0115 57.3362 58.4755 56.3042 58.4755 54.9282C58.4755 54.1602 58.2515 53.4642 57.8035 52.8402C57.3555 52.2002 56.7555 51.7042 56.0035 51.3522C55.2675 50.9842 54.4755 50.8002 53.6275 50.8002H49.9315V59.0322H53.6275Z" fill="#111111"/>
  </g>
</svg>
